<svg width="330" height="213" viewBox="0 0 330 213" fill="none" xmlns="http://www.w3.org/2000/svg">
<path d="M46.2883 107.568C38.0078 108.658 34.6008 101.167 33.4981 92.7911C31.5434 77.9432 40.9469 53.7569 50.0955 37.9314L36.3898 39.7358C27.6333 40.8886 25.5322 45.5225 25.9833 48.9489C26.1838 50.4718 26.9303 51.7291 28.9842 52.6206C29.4977 52.8435 30.3468 53.4095 30.4721 54.3613C30.61 55.4083 29.8411 56.1873 28.6989 56.3377C26.8905 56.5758 24.293 54.497 23.8419 51.0706C23.2404 46.502 26.7615 38.6795 37.6119 37.251L44.9406 36.2862C50.6514 35.5343 51.8711 34.5023 52.4422 34.4271C52.8229 34.377 53.146 34.6249 53.2087 35.1008C53.2463 35.3864 53.1887 35.6844 52.9533 36.1027C43.2586 52.1938 34.604 76.1847 36.5838 91.2229C37.5863 98.8372 40.094 105.382 47.042 104.467C51.801 103.841 56.5847 99.725 60.8323 93.7434C60.0181 91.2363 59.4393 88.3108 59.0508 85.3603C56.031 62.4222 60.8355 34.1936 69.9726 32.9906C74.3509 32.4142 76.4 36.2113 77.3523 43.4448C79.1442 57.0554 72.6134 78.0555 63.645 92.308C65.539 97.8684 68.6476 101.623 73.4065 100.996C86.1605 99.3171 100.247 70.2538 97.4657 49.1241C95.7866 36.3702 90.4814 33.5828 90.1305 30.9178C90.0178 30.0612 90.5963 29.3072 91.4529 29.1944C95.4504 28.6681 98.5695 37.6499 99.6972 46.216C102.817 69.9155 88.167 102.055 72.6528 104.097C67.2276 104.811 63.6556 101.215 61.4636 95.5969C56.7201 102.225 51.3328 106.904 46.2883 107.568ZM61.7307 83.6518C62.044 86.0313 62.4399 88.3031 63.0963 90.3469C71.0604 77.2917 76.5544 57.9773 74.8252 44.8427C73.9856 38.4657 72.5001 35.2723 69.4544 35.6732C62.6015 36.5754 58.7109 60.7138 61.7307 83.6518ZM112.976 98.7885C108.217 99.415 105.775 95.573 104.998 89.6719C103.143 75.5854 111.374 50.5852 124.319 48.881C128.316 48.3547 132.113 49.985 132.715 54.5536C133.742 62.3583 124.729 73.3246 108.897 75.8931C108.14 80.4467 107.86 84.9377 108.299 88.269C108.9 92.8376 110.526 95.6252 113.762 95.1992C118.331 94.5977 124.755 88.2327 129.483 79.283L130.092 79.4934C125.011 90.9103 118.877 98.0116 112.976 98.7885ZM109.197 74.4979C123.399 72.0473 130.241 62.2383 129.314 55.1951C128.938 52.3397 127.47 50.0154 124.043 50.4665C117 51.3938 111.493 63.2541 109.197 74.4979ZM142.679 94.878C139.253 95.3291 137.399 92.281 136.772 87.522C134.868 73.0549 145.791 46.4414 158.355 44.7873C160.735 44.4741 162.884 45.3531 164.269 47.7851L166.97 29.3225C168.202 21.0268 167.866 20.6837 161.394 21.5357L161.509 20.9396C166.053 20.1478 170.211 18.6321 170.782 18.5569C171.448 18.4692 171.663 18.6345 171.726 19.1104C171.801 19.6815 170.759 24.2727 169.996 29.5052L162.042 82.3555C161.587 85.514 161.449 88.1464 162.591 87.9961C163.733 87.8457 165.749 84.7723 170.929 75.5695L171.455 75.8876C166.055 87.8305 163.523 92.1338 160.858 92.4847C159.526 92.6601 158.684 91.4153 158.433 89.5117C158.208 87.7985 158.638 84.4497 159.004 82.0777L160.569 71.8983L160.283 71.9359C155.778 84.0516 148.009 94.1763 142.679 94.878ZM139.986 85.4529C140.449 88.9745 141.727 91.3239 144.202 90.9981C150.388 90.1836 160.434 73.0781 162.454 59.7403C162.749 57.5712 163.385 52.8397 163.16 51.1265C162.759 48.0807 161.481 45.7314 158.245 46.1574C147.775 47.5358 138.382 73.27 139.986 85.4529ZM181.461 89.7723C178.034 90.2234 176.181 87.1753 175.554 82.4164C173.649 67.9492 184.573 41.3357 197.137 39.6816C199.516 39.3684 201.665 40.2474 203.051 42.6794L205.752 24.2168C206.984 15.9211 206.648 15.578 200.176 16.43L200.291 15.8339C204.834 15.0421 208.992 13.5264 209.563 13.4513C210.229 13.3635 210.445 13.5288 210.508 14.0047C210.583 14.5758 209.541 19.167 208.778 24.3995L200.824 77.2498C200.368 80.4083 200.231 83.0408 201.373 82.8904C202.515 82.74 204.531 79.6666 209.71 70.4638L210.236 70.7819C204.837 82.7248 202.305 87.0281 199.64 87.379C198.307 87.5544 197.466 86.3096 197.215 84.406C196.989 82.6928 197.42 79.344 197.786 76.972L199.35 66.7927L199.065 66.8302C194.56 78.9459 186.791 89.0706 181.461 89.7723ZM178.767 80.3472C179.231 83.8688 180.509 86.2182 182.983 85.8924C189.17 85.0779 199.215 67.9724 201.235 54.6346C201.531 52.4655 202.167 47.734 201.941 46.0208C201.54 42.975 200.263 40.6257 197.027 41.0517C186.557 42.4301 177.164 68.1643 178.767 80.3472ZM220.242 84.6666C218.91 84.842 218.068 83.5973 217.818 81.6937C217.592 79.9805 218.023 76.6316 218.388 74.2596L222.692 45.9033C223.147 42.7448 223.285 40.1123 222.143 40.2627C221.001 40.413 218.984 43.4865 213.805 52.6892L213.279 52.3712C218.679 40.4282 221.211 36.1249 223.876 35.7741C225.208 35.5987 226.05 36.8434 226.3 38.747C226.526 40.4602 226.095 43.8091 225.73 46.1811L221.426 74.5374C220.971 77.6959 220.833 80.3284 221.975 80.178C223.213 80.0151 225.133 76.9542 230.313 67.7515L230.839 68.0695C225.439 80.0125 222.907 84.3158 220.242 84.6666ZM222.414 18.0533C222.201 16.4352 223.263 14.9398 224.881 14.7268C226.499 14.5138 227.696 15.5181 227.909 17.1361C228.122 18.7542 227.061 20.2496 225.442 20.4626C223.824 20.6756 222.627 19.6713 222.414 18.0533ZM238.903 82.21C238.236 82.2977 237.71 81.9796 237.61 81.2182C237.56 80.8375 237.58 80.2539 237.74 79.2645L243.255 43.196C243.711 40.0375 243.849 37.405 242.706 37.5554C241.564 37.7058 239.548 40.7792 234.369 49.982L233.843 49.6639C239.242 37.721 241.774 33.4177 244.439 33.0668C245.772 32.8914 246.614 34.1362 246.864 36.0397C247.09 37.753 246.659 41.1018 246.294 43.4738L243.057 63.7498L243.342 63.7122C248.819 47.2082 257.574 31.3376 263.666 30.5356C265.474 30.2976 266.601 31.5048 266.852 33.4083C267.077 35.1216 266.647 38.4704 266.281 40.8424L261.978 69.1987C261.522 72.3572 261.384 74.9897 262.527 74.8393C263.669 74.689 265.685 71.6155 270.864 62.4128L271.39 62.7308C265.991 74.6738 263.459 78.9771 260.794 79.3279C259.461 79.5034 258.619 78.2586 258.369 76.355C258.143 74.6418 258.574 71.2929 258.939 68.9209L263.243 40.5646C263.769 37.2032 263.836 34.7736 261.933 35.0242C256.031 35.8011 243.793 59.7798 240.53 79.8654C240.325 81.248 239.759 82.0972 238.903 82.21ZM291.594 101.417C277.317 103.296 267.989 97.1653 267.025 89.8365C266.172 83.3644 273.078 77.7107 289.544 75.5429L288.301 74.9319C283.141 72.5127 281.711 70.4739 281.46 68.5704C281.16 66.2861 282.755 64.43 286.717 62.1654L286.812 62.1529C281.337 62.4864 277.968 58.96 277.191 53.0589C276.026 44.2073 281.184 28.2293 290.988 26.9386C294.985 26.4123 298.231 27.5342 302.8 26.9327C306.226 26.4816 306.121 24.9463 307.739 24.7332C308.881 24.5829 309.838 25.2315 309.989 26.3737C310.151 27.611 309.16 28.9035 307.256 29.1541C305.448 29.3922 301.508 29.6204 296.283 28.1781C298.412 29.6407 299.847 32.4534 300.324 36.0702C301.351 43.8748 297.562 56.2835 290.494 60.6999C286.474 63.2625 283.94 65.3391 284.165 67.0523C284.366 68.5752 285.961 70.3985 290.19 72.3594L297.213 75.6952C305.79 79.7948 308.62 82.908 309.121 86.7151C310.074 93.9487 302.349 100.001 291.594 101.417ZM270.095 89.6259C270.947 96.0981 279.294 101.39 292.048 99.7109C302.041 98.3952 307.156 93.8487 306.454 88.5187C305.928 84.5212 303.375 82.0492 295.325 78.2677L291.299 76.3769L289.872 76.5648C275.835 78.8001 269.318 83.7248 270.095 89.6259ZM280.254 53.5271C280.906 58.4764 283.306 61.2589 286.447 60.8454C294.061 59.843 298.275 43.3115 297.26 35.602C296.609 30.6527 294.304 27.8576 291.163 28.2711C283.073 29.3362 279.29 46.1983 280.254 53.5271ZM26.1854 186.87C21.4265 187.497 18.9841 183.655 18.2197 177.849C16.3527 163.667 24.4887 138.68 37.7185 136.938C42.0016 136.374 44.9924 138.498 45.5563 142.781C45.8821 145.256 45.1433 146.999 43.8108 147.174C42.4783 147.35 41.7944 146.568 41.867 144.913C42.0269 140.244 40.6792 138.097 37.2528 138.549C26.9735 139.902 19.9295 164.358 21.4832 176.161C22.0847 180.729 23.7355 183.707 26.9716 183.281C31.5402 182.68 37.3933 176.39 42.1216 167.44L42.7302 167.651C37.649 179.067 32.0865 186.094 26.1854 186.87ZM57.7171 182.719C52.9581 183.346 50.5157 179.504 49.7388 173.603C47.8843 159.516 56.1156 134.516 69.0599 132.812C73.0574 132.285 76.8546 133.916 77.4561 138.484C78.4836 146.289 69.4699 157.255 53.6377 159.824C52.8816 164.378 52.6014 168.869 53.04 172.2C53.6414 176.768 55.2672 179.556 58.5033 179.13C63.0719 178.528 69.496 172.164 74.2243 163.214L74.833 163.424C69.7517 174.841 63.6181 181.942 57.7171 182.719ZM53.9382 158.429C68.1398 155.978 74.982 146.169 74.0547 139.126C73.6788 136.27 72.2109 133.946 68.7845 134.397C61.7412 135.325 56.2342 147.185 53.9382 158.429ZM85.4215 179.072C84.8504 179.147 84.3119 178.734 84.2242 178.068C84.174 177.687 84.194 177.103 84.3543 176.114L89.8696 140.045C90.3252 136.887 90.4628 134.254 89.3206 134.405C88.1785 134.555 86.1624 137.629 80.9833 146.831L80.4573 146.513C85.8566 134.57 88.2934 130.28 90.9584 129.929C92.2909 129.753 93.1326 130.998 93.3832 132.902C93.6087 134.615 93.1656 137.869 92.8126 140.336L89.8709 158.443L90.1564 158.405C94.6989 142.895 101.238 128.575 105.997 127.949C107.519 127.748 108.406 128.6 108.782 131.455C109.158 134.311 108.727 137.66 106.824 137.91C106.062 138.01 105.441 137.705 105.316 136.753C105.115 135.23 106.022 131.819 104.499 132.019C100.692 132.52 90.4068 156.629 87.1446 176.715C86.9393 178.097 86.3733 178.947 85.4215 179.072ZM117.899 174.796C113.14 175.423 110.698 171.581 109.921 165.68C108.066 151.593 116.297 126.593 129.242 124.889C133.239 124.362 137.037 125.993 137.638 130.561C138.666 138.366 129.652 149.332 113.82 151.901C113.064 156.454 112.783 160.945 113.222 164.277C113.823 168.845 115.449 171.633 118.685 171.207C123.254 170.605 129.678 164.24 134.406 155.291L135.015 155.501C129.934 166.918 123.8 174.019 117.899 174.796ZM114.12 150.506C128.322 148.055 135.164 138.246 134.237 131.203C133.861 128.347 132.393 126.023 128.966 126.474C121.923 127.401 116.416 139.262 114.12 150.506ZM145.699 171.136C145.032 171.224 144.506 170.906 144.406 170.145C144.356 169.764 144.376 169.18 144.536 168.191L150.052 132.122C150.507 128.964 150.645 126.331 149.503 126.482C148.36 126.632 146.344 129.706 141.165 138.908L140.639 138.59C146.039 126.647 148.571 122.344 151.236 121.993C152.568 121.818 153.41 123.063 153.66 124.966C153.886 126.679 153.455 130.028 153.09 132.4L149.795 152.974L150.081 152.937C155.45 136.35 164.37 120.264 170.462 119.462C172.27 119.224 173.397 120.431 173.648 122.335C173.873 124.048 173.443 127.397 173.077 129.769L169.783 150.343L170.068 150.305C175.437 133.719 184.358 117.633 190.449 116.831C192.258 116.592 193.385 117.8 193.635 119.703C193.861 121.416 193.43 124.765 193.065 127.137L188.761 155.494C188.306 158.652 188.168 161.285 189.31 161.134C190.452 160.984 192.468 157.91 197.648 148.708L198.174 149.026C192.774 160.969 190.242 165.272 187.577 165.623C186.245 165.798 185.403 164.553 185.152 162.65C184.927 160.937 185.357 157.588 185.723 155.216L190.027 126.86C190.552 123.498 190.62 121.069 188.716 121.319C182.815 122.096 170.576 146.075 167.314 166.16C167.109 167.543 166.543 168.392 165.686 168.505C165.02 168.593 164.481 168.179 164.394 167.513C164.344 167.132 164.364 166.549 164.524 165.559L170.039 129.491C170.565 126.13 170.632 123.7 168.729 123.951C162.828 124.727 150.589 148.706 147.327 168.792C147.121 170.174 146.555 171.024 145.699 171.136ZM214.61 162.064C208.328 162.891 204.295 157.999 203.193 149.624C201.589 137.441 207.584 114.575 220.528 112.871C226.81 112.044 230.843 116.935 231.945 125.311C233.549 137.494 227.555 160.36 214.61 162.064ZM206.539 151.507C207.216 156.647 209.295 161.408 214.435 160.731C225.476 159.278 229.877 133.136 228.599 123.427C227.922 118.288 225.843 113.526 220.703 114.203C209.663 115.657 205.261 141.799 206.539 151.507ZM242.316 158.416C241.65 158.504 241.124 158.186 241.024 157.425C240.974 157.044 240.994 156.46 241.154 155.471L246.669 119.402C247.125 116.244 247.262 113.611 246.12 113.762C244.978 113.912 242.962 116.986 237.783 126.188L237.257 125.87C242.656 113.927 245.188 109.624 247.853 109.273C249.186 109.098 250.027 110.343 250.278 112.246C250.503 113.959 250.073 117.308 249.707 119.68L246.47 139.956L246.756 139.919C252.232 123.415 260.988 107.544 267.079 106.742C268.888 106.504 270.015 107.711 270.265 109.615C270.491 111.328 270.06 114.677 269.695 117.049L265.391 145.405C264.936 148.564 264.798 151.196 265.94 151.046C267.082 150.895 269.098 147.822 274.278 138.619L274.804 138.937C269.404 150.88 266.872 155.183 264.207 155.534C262.875 155.71 262.033 154.465 261.782 152.561C261.557 150.848 261.987 147.499 262.353 145.127L266.657 116.771C267.182 113.41 267.25 110.98 265.346 111.231C259.445 112.008 247.206 135.986 243.944 156.072C243.739 157.454 243.173 158.304 242.316 158.416ZM272.919 179.563C268.826 180.102 267.508 178.92 267.358 177.777C267.233 176.826 267.786 175.881 268.833 175.743C269.595 175.643 270.216 175.949 271.052 176.42C272.2 177.043 273.106 177.311 275.105 177.048C291.285 174.918 294.79 150.056 292.347 131.496C290.73 119.218 285.941 107.842 282.229 108.33C279.849 108.643 278.99 113.888 277.716 124.804L277.12 124.689C277.43 113.803 277.863 105.322 282.526 104.708C287.856 104.007 293.2 114.438 295.167 129.382C296.746 141.374 295.787 153.216 292.417 162.181L292.702 162.144C302.111 146.09 307.47 124.276 305.29 107.715C304.951 105.145 304.673 104.504 304.573 103.742C304.41 102.505 304.798 101.776 305.845 101.638C307.273 101.45 308.114 102.695 308.578 106.217C311.134 125.633 297.665 176.305 272.919 179.563Z" fill="#1E1E1E"/>
</svg>
